<svg width="1440" height="1354" viewBox="0 0 1440 1354" fill="none" xmlns="http://www.w3.org/2000/svg">
<g opacity="0.1" clip-path="url(#clip0_832_26)">
<path d="M-619.598 1246.95C-623.544 1223.68 -610.123 881.905 -485.782 598.924C-374.169 345.266 -114.617 200.697 189.161 383.01C514.647 578.404 795.4 598.053 1021.78 541.055C1245.2 484.545 1393.77 314.274 1460.5 205.699C1605.32 -28.9325 1819.24 116.199 1744.1 424.907C1708.65 568.51 1615.18 608.659 1453.21 623.56C1283.91 639.135 1033.77 606.074 686.835 673.45C352.244 738.682 -24.2813 895.345 -236.007 1094.76C-461.334 1307.16 -586.565 1450 -619.598 1246.95Z" fill="url(#paint0_linear_832_26)"/>
</g>
<defs>
<linearGradient id="paint0_linear_832_26" x1="1636" y1="1062.32" x2="-568.332" y2="379.04" gradientUnits="userSpaceOnUse">
<stop stop-color="#5D50C6"/>
<stop offset="1" stop-color="#F85E9F"/>
</linearGradient>
<clipPath id="clip0_832_26">
<rect width="2506.2" height="958.638" fill="white" transform="translate(-758 407.874) rotate(-9.36634)"/>
</clipPath>
</defs>
</svg>
