<svg width="65" height="154" viewBox="0 0 65 154" fill="none" xmlns="http://www.w3.org/2000/svg">
<g clip-path="url(#clip0_832_1216)">
<path d="M43.9746 153.426L64.9492 153.426L54.4619 142.939L43.9746 153.426Z" fill="#FF5722"/>
<path d="M43.9746 117.888L64.9492 117.888L54.4619 107.4L43.9746 117.888Z" fill="#FF5722"/>
<path d="M43.9746 82.334L64.9492 82.334L54.4619 71.8467L43.9746 82.334Z" fill="#FF5722"/>
<path d="M43.9746 46.7954L64.9492 46.7954L54.4619 36.3081L43.9746 46.7954Z" fill="#FF5722"/>
<path d="M43.9746 11.2568L64.9492 11.2568L54.4619 0.754355L43.9746 11.2568Z" fill="#FF5722"/>
<path d="M1.90735e-05 153.426L20.9746 153.426L10.4873 142.939L1.90735e-05 153.426Z" fill="#FF5722"/>
<path d="M-0.000225067 117.873L20.9744 117.873L10.4871 107.385L-0.000225067 117.873Z" fill="#FF5722"/>
<path d="M-0.000225067 82.334L20.9744 82.334L10.4871 71.8467L-0.000225067 82.334Z" fill="#FF5722"/>
<path d="M-0.000225067 46.7955L20.9744 46.7955L10.4871 36.3082L-0.000225067 46.7955Z" fill="#FF5722"/>
<path d="M-0.000225067 11.2417L20.9744 11.2417L10.4871 0.754438L-0.000225067 11.2417Z" fill="#FF5722"/>
</g>
<defs>
<clipPath id="clip0_832_1216">
<rect width="64.9492" height="152.672" fill="white" transform="translate(64.9492 153.426) rotate(180)"/>
</clipPath>
</defs>
</svg>
